<svg xmlns="http://www.w3.org/2000/svg" xmlns:xlink="http://www.w3.org/1999/xlink" contentStyleType="text/css" data-diagram-type="CLASS" height="540px" preserveAspectRatio="none" style="width:968px;height:540px;background:#FFFFFF;" version="1.1" viewBox="0 0 968 540" width="968px" zoomAndPan="magnify"><defs/><g><!--class Producto--><g id="elem_Producto"><rect codeLine="1" fill="#F1F1F1" height="145.7813" id="Producto" rx="2.5" ry="2.5" style="stroke:#181818;stroke-width:0.5;" width="162.8145" x="107.5" y="193"/><ellipse cx="153.5195" cy="209" fill="#ADD1B2" rx="11" ry="11" style="stroke:#181818;stroke-width:1;"/><path d="M156.4883,214.6406 Q155.9102,214.9375 155.2695,215.0781 Q154.6289,215.2344 153.9258,215.2344 Q151.4258,215.2344 150.0977,213.5938 Q148.7852,211.9375 148.7852,208.8125 Q148.7852,205.6875 150.0977,204.0313 Q151.4258,202.375 153.9258,202.375 Q154.6289,202.375 155.2695,202.5313 Q155.9258,202.6875 156.4883,202.9844 L156.4883,205.7031 Q155.8633,205.125 155.2695,204.8594 Q154.6758,204.5781 154.0508,204.5781 Q152.707,204.5781 152.0195,205.6563 Q151.332,206.7188 151.332,208.8125 Q151.332,210.9063 152.0195,211.9844 Q152.707,213.0469 154.0508,213.0469 Q154.6758,213.0469 155.2695,212.7813 Q155.8633,212.5 156.4883,211.9219 L156.4883,214.6406 Z " fill="#000000"/><text fill="#000000" font-family="sans-serif" font-size="14" lengthAdjust="spacing" textLength="62.2754" x="174.0195" y="213.8467">Producto</text><line style="stroke:#181818;stroke-width:0.5;" x1="108.5" x2="269.3145" y1="225" y2="225"/><ellipse cx="118.5" cy="238.6484" fill="transparent" rx="3" ry="3" style="stroke:#038048;stroke-width:1;"/><text fill="#000000" font-family="sans-serif" font-size="14" lengthAdjust="spacing" textLength="62.1318" x="127.5" y="241.9951">id: string</text><ellipse cx="118.5" cy="254.9453" fill="transparent" rx="3" ry="3" style="stroke:#038048;stroke-width:1;"/><text fill="#000000" font-family="sans-serif" font-size="14" lengthAdjust="spacing" textLength="103.6875" x="127.5" y="258.292">nombre: string</text><ellipse cx="118.5" cy="271.2422" fill="transparent" rx="3" ry="3" style="stroke:#038048;stroke-width:1;"/><text fill="#000000" font-family="sans-serif" font-size="14" lengthAdjust="spacing" textLength="107.2148" x="127.5" y="274.5889">precio: number</text><ellipse cx="118.5" cy="287.5391" fill="transparent" rx="3" ry="3" style="stroke:#038048;stroke-width:1;"/><text fill="#000000" font-family="sans-serif" font-size="14" lengthAdjust="spacing" textLength="100.96" x="127.5" y="290.8857">stock: number</text><ellipse cx="118.5" cy="303.8359" fill="transparent" rx="3" ry="3" style="stroke:#038048;stroke-width:1;"/><text fill="#000000" font-family="sans-serif" font-size="14" lengthAdjust="spacing" textLength="101.835" x="127.5" y="307.1826">imagen: string</text><ellipse cx="118.5" cy="320.1328" fill="transparent" rx="3" ry="3" style="stroke:#038048;stroke-width:1;"/><text fill="#000000" font-family="sans-serif" font-size="14" lengthAdjust="spacing" textLength="136.8145" x="127.5" y="323.4795">disponible: boolean</text><line style="stroke:#181818;stroke-width:0.5;" x1="108.5" x2="269.3145" y1="330.7813" y2="330.7813"/></g><!--class ProductoCarrito--><g id="elem_ProductoCarrito"><rect codeLine="10" fill="#F1F1F1" height="113.1875" id="ProductoCarrito" rx="2.5" ry="2.5" style="stroke:#181818;stroke-width:0.5;" width="150.6875" x="629.5" y="420"/><ellipse cx="648.3707" cy="436" fill="#ADD1B2" rx="11" ry="11" style="stroke:#181818;stroke-width:1;"/><path d="M651.3395,441.6406 Q650.7613,441.9375 650.1207,442.0781 Q649.4801,442.2344 648.777,442.2344 Q646.277,442.2344 644.9488,440.5938 Q643.6363,438.9375 643.6363,435.8125 Q643.6363,432.6875 644.9488,431.0313 Q646.277,429.375 648.777,429.375 Q649.4801,429.375 650.1207,429.5313 Q650.777,429.6875 651.3395,429.9844 L651.3395,432.7031 Q650.7145,432.125 650.1207,431.8594 Q649.527,431.5781 648.902,431.5781 Q647.5582,431.5781 646.8707,432.6563 Q646.1832,433.7188 646.1832,435.8125 Q646.1832,437.9063 646.8707,438.9844 Q647.5582,440.0469 648.902,440.0469 Q649.527,440.0469 650.1207,439.7813 Q650.7145,439.5 651.3395,438.9219 L651.3395,441.6406 Z " fill="#000000"/><text fill="#000000" font-family="sans-serif" font-size="14" lengthAdjust="spacing" textLength="110.0859" x="663.2309" y="440.8467">ProductoCarrito</text><line style="stroke:#181818;stroke-width:0.5;" x1="630.5" x2="779.1875" y1="452" y2="452"/><ellipse cx="640.5" cy="465.6484" fill="transparent" rx="3" ry="3" style="stroke:#038048;stroke-width:1;"/><text fill="#000000" font-family="sans-serif" font-size="14" lengthAdjust="spacing" textLength="62.1318" x="649.5" y="468.9951">id: string</text><ellipse cx="640.5" cy="481.9453" fill="transparent" rx="3" ry="3" style="stroke:#038048;stroke-width:1;"/><text fill="#000000" font-family="sans-serif" font-size="14" lengthAdjust="spacing" textLength="103.6875" x="649.5" y="485.292">nombre: string</text><ellipse cx="640.5" cy="498.2422" fill="transparent" rx="3" ry="3" style="stroke:#038048;stroke-width:1;"/><text fill="#000000" font-family="sans-serif" font-size="14" lengthAdjust="spacing" textLength="107.2148" x="649.5" y="501.5889">precio: number</text><ellipse cx="640.5" cy="514.5391" fill="transparent" rx="3" ry="3" style="stroke:#038048;stroke-width:1;"/><text fill="#000000" font-family="sans-serif" font-size="14" lengthAdjust="spacing" textLength="124.6875" x="649.5" y="517.8857">cantidad: number</text><line style="stroke:#181818;stroke-width:0.5;" x1="630.5" x2="779.1875" y1="525.1875" y2="525.1875"/></g><!--class Carrito--><g id="elem_Carrito"><rect codeLine="17" fill="#F1F1F1" height="154.0469" id="Carrito" rx="2.5" ry="2.5" style="stroke:#181818;stroke-width:0.5;" width="255.7695" x="577" y="189"/><ellipse cx="676.7295" cy="209.1328" fill="#ADD1B2" rx="11" ry="11" style="stroke:#181818;stroke-width:1;"/><path d="M679.6982,214.7734 Q679.1201,215.0703 678.4795,215.2109 Q677.8389,215.3672 677.1357,215.3672 Q674.6357,215.3672 673.3076,213.7266 Q671.9951,212.0703 671.9951,208.9453 Q671.9951,205.8203 673.3076,204.1641 Q674.6357,202.5078 677.1357,202.5078 Q677.8389,202.5078 678.4795,202.6641 Q679.1357,202.8203 679.6982,203.1172 L679.6982,205.8359 Q679.0732,205.2578 678.4795,204.9922 Q677.8857,204.7109 677.2607,204.7109 Q675.917,204.7109 675.2295,205.7891 Q674.542,206.8516 674.542,208.9453 Q674.542,211.0391 675.2295,212.1172 Q675.917,213.1797 677.2607,213.1797 Q677.8857,213.1797 678.4795,212.9141 Q679.0732,212.6328 679.6982,212.0547 L679.6982,214.7734 Z " fill="#000000"/><text fill="#000000" font-family="sans-serif" font-size="12" font-style="italic" lengthAdjust="spacing" textLength="45.4277" x="698.4209" y="205.1387">&#171;store&#187;</text><text fill="#000000" font-family="sans-serif" font-size="14" lengthAdjust="spacing" textLength="47.8105" x="697.2295" y="220.9639">Carrito</text><line style="stroke:#181818;stroke-width:0.5;" x1="578" x2="831.7695" y1="229.2656" y2="229.2656"/><rect fill="transparent" height="6" style="stroke:#C82930;stroke-width:1;" width="6" x="585" y="239.9141"/><text fill="#000000" font-family="sans-serif" font-size="14" lengthAdjust="spacing" textLength="169.1006" x="597" y="246.2607">items: ProductoCarrito[]</text><line style="stroke:#181818;stroke-width:0.5;" x1="578" x2="831.7695" y1="253.5625" y2="253.5625"/><ellipse cx="588" cy="267.2109" fill="#84BE84" rx="3" ry="3" style="stroke:#038048;stroke-width:1;"/><text fill="#000000" font-family="sans-serif" font-size="14" lengthAdjust="spacing" textLength="229.7695" x="597" y="270.5576">agregarProducto(producto): void</text><ellipse cx="588" cy="283.5078" fill="#84BE84" rx="3" ry="3" style="stroke:#038048;stroke-width:1;"/><text fill="#000000" font-family="sans-serif" font-size="14" lengthAdjust="spacing" textLength="166.2432" x="597" y="286.8545">quitarProducto(id): void</text><ellipse cx="588" cy="299.8047" fill="#84BE84" rx="3" ry="3" style="stroke:#038048;stroke-width:1;"/><text fill="#000000" font-family="sans-serif" font-size="14" lengthAdjust="spacing" textLength="131.667" x="597" y="303.1514">restarUno(id): void</text><ellipse cx="588" cy="316.1016" fill="#84BE84" rx="3" ry="3" style="stroke:#038048;stroke-width:1;"/><text fill="#000000" font-family="sans-serif" font-size="14" lengthAdjust="spacing" textLength="169.7021" x="597" y="319.4482">totalCantidad(): number</text><ellipse cx="588" cy="332.3984" fill="#84BE84" rx="3" ry="3" style="stroke:#038048;stroke-width:1;"/><text fill="#000000" font-family="sans-serif" font-size="14" lengthAdjust="spacing" textLength="149.707" x="597" y="335.7451">totalPrecio(): number</text></g><!--class Firestore--><g id="elem_Firestore"><rect codeLine="26" fill="#F1F1F1" height="88.8594" id="Firestore" rx="2.5" ry="2.5" style="stroke:#181818;stroke-width:0.5;" width="210.9189" x="346.5" y="432"/><ellipse cx="416.6948" cy="452.1328" fill="#ADD1B2" rx="11" ry="11" style="stroke:#181818;stroke-width:1;"/><path d="M419.6636,457.7734 Q419.0854,458.0703 418.4448,458.2109 Q417.8042,458.3672 417.1011,458.3672 Q414.6011,458.3672 413.2729,456.7266 Q411.9604,455.0703 411.9604,451.9453 Q411.9604,448.8203 413.2729,447.1641 Q414.6011,445.5078 417.1011,445.5078 Q417.8042,445.5078 418.4448,445.6641 Q419.1011,445.8203 419.6636,446.1172 L419.6636,448.8359 Q419.0386,448.2578 418.4448,447.9922 Q417.8511,447.7109 417.2261,447.7109 Q415.8823,447.7109 415.1948,448.7891 Q414.5073,449.8516 414.5073,451.9453 Q414.5073,454.0391 415.1948,455.1172 Q415.8823,456.1797 417.2261,456.1797 Q417.8511,456.1797 418.4448,455.9141 Q419.0386,455.6328 419.6636,455.0547 L419.6636,457.7734 Z " fill="#000000"/><text fill="#000000" font-family="sans-serif" font-size="12" font-style="italic" lengthAdjust="spacing" textLength="64.6113" x="435.9038" y="448.1387">&#171;external&#187;</text><text fill="#000000" font-family="sans-serif" font-size="14" lengthAdjust="spacing" textLength="62.0293" x="437.1948" y="463.9639">Firestore</text><line style="stroke:#181818;stroke-width:0.5;" x1="347.5" x2="556.4189" y1="472.2656" y2="472.2656"/><line style="stroke:#181818;stroke-width:0.5;" x1="347.5" x2="556.4189" y1="480.2656" y2="480.2656"/><ellipse cx="357.5" cy="493.9141" fill="#84BE84" rx="3" ry="3" style="stroke:#038048;stroke-width:1;"/><text fill="#000000" font-family="sans-serif" font-size="14" lengthAdjust="spacing" textLength="150.6162" x="366.5" y="497.2607">getDocs(): Producto[]</text><ellipse cx="357.5" cy="510.2109" fill="#84BE84" rx="3" ry="3" style="stroke:#038048;stroke-width:1;"/><text fill="#000000" font-family="sans-serif" font-size="14" lengthAdjust="spacing" textLength="184.9189" x="366.5" y="513.5576">updateDoc(id, stock): void</text></g><!--class TiendaView--><g id="elem_TiendaView"><rect codeLine="31" fill="#F1F1F1" height="105.1563" id="TiendaView" rx="2.5" ry="2.5" style="stroke:#181818;stroke-width:0.5;" width="281.2471" x="286.5" y="7"/><ellipse cx="382.4116" cy="27.1328" fill="#ADD1B2" rx="11" ry="11" style="stroke:#181818;stroke-width:1;"/><path d="M385.3804,32.7734 Q384.8022,33.0703 384.1616,33.2109 Q383.521,33.3672 382.8179,33.3672 Q380.3179,33.3672 378.9897,31.7266 Q377.6772,30.0703 377.6772,26.9453 Q377.6772,23.8203 378.9897,22.1641 Q380.3179,20.5078 382.8179,20.5078 Q383.521,20.5078 384.1616,20.6641 Q384.8179,20.8203 385.3804,21.1172 L385.3804,23.8359 Q384.7554,23.2578 384.1616,22.9922 Q383.5679,22.7109 382.9429,22.7109 Q381.5991,22.7109 380.9116,23.7891 Q380.2241,24.8516 380.2241,26.9453 Q380.2241,29.0391 380.9116,30.1172 Q381.5991,31.1797 382.9429,31.1797 Q383.5679,31.1797 384.1616,30.9141 Q384.7554,30.6328 385.3804,30.0547 L385.3804,32.7734 Z " fill="#000000"/><text fill="#000000" font-family="sans-serif" font-size="12" font-style="italic" lengthAdjust="spacing" textLength="82.6992" x="402.0239" y="23.1387">&#171;component&#187;</text><text fill="#000000" font-family="sans-serif" font-size="14" lengthAdjust="spacing" textLength="80.9238" x="402.9116" y="38.9639">TiendaView</text><line style="stroke:#181818;stroke-width:0.5;" x1="287.5" x2="566.7471" y1="47.2656" y2="47.2656"/><ellipse cx="297.5" cy="60.9141" fill="transparent" rx="3" ry="3" style="stroke:#038048;stroke-width:1;"/><text fill="#000000" font-family="sans-serif" font-size="14" lengthAdjust="spacing" textLength="152.3799" x="306.5" y="64.2607">productos: Producto[]</text><line style="stroke:#181818;stroke-width:0.5;" x1="287.5" x2="566.7471" y1="71.5625" y2="71.5625"/><ellipse cx="297.5" cy="85.2109" fill="#84BE84" rx="3" ry="3" style="stroke:#038048;stroke-width:1;"/><text fill="#000000" font-family="sans-serif" font-size="14" lengthAdjust="spacing" textLength="164.541" x="306.5" y="88.5576">cargarProductos(): void</text><ellipse cx="297.5" cy="101.5078" fill="#84BE84" rx="3" ry="3" style="stroke:#038048;stroke-width:1;"/><text fill="#000000" font-family="sans-serif" font-size="14" lengthAdjust="spacing" textLength="255.2471" x="306.5" y="104.8545">actualizarStock(p: Producto, n): void</text></g><!--class ProductoView--><g id="elem_ProductoView"><rect codeLine="37" fill="#F1F1F1" height="105.1563" id="ProductoView" rx="2.5" ry="2.5" style="stroke:#181818;stroke-width:0.5;" width="244.0254" x="7" y="7"/><ellipse cx="76.8599" cy="27.1328" fill="#ADD1B2" rx="11" ry="11" style="stroke:#181818;stroke-width:1;"/><path d="M79.8286,32.7734 Q79.2505,33.0703 78.6099,33.2109 Q77.9692,33.3672 77.2661,33.3672 Q74.7661,33.3672 73.438,31.7266 Q72.1255,30.0703 72.1255,26.9453 Q72.1255,23.8203 73.438,22.1641 Q74.7661,20.5078 77.2661,20.5078 Q77.9692,20.5078 78.6099,20.6641 Q79.2661,20.8203 79.8286,21.1172 L79.8286,23.8359 Q79.2036,23.2578 78.6099,22.9922 Q78.0161,22.7109 77.3911,22.7109 Q76.0474,22.7109 75.3599,23.7891 Q74.6724,24.8516 74.6724,26.9453 Q74.6724,29.0391 75.3599,30.1172 Q76.0474,31.1797 77.3911,31.1797 Q78.0161,31.1797 78.6099,30.9141 Q79.2036,30.6328 79.8286,30.0547 L79.8286,32.7734 Z " fill="#000000"/><text fill="#000000" font-family="sans-serif" font-size="12" font-style="italic" lengthAdjust="spacing" textLength="82.6992" x="103.9131" y="23.1387">&#171;component&#187;</text><text fill="#000000" font-family="sans-serif" font-size="14" lengthAdjust="spacing" textLength="95.8057" x="97.3599" y="38.9639">ProductoView</text><line style="stroke:#181818;stroke-width:0.5;" x1="8" x2="250.0254" y1="47.2656" y2="47.2656"/><ellipse cx="18" cy="60.9141" fill="transparent" rx="3" ry="3" style="stroke:#038048;stroke-width:1;"/><text fill="#000000" font-family="sans-serif" font-size="14" lengthAdjust="spacing" textLength="134.1621" x="27" y="64.2607">producto: Producto</text><line style="stroke:#181818;stroke-width:0.5;" x1="8" x2="250.0254" y1="71.5625" y2="71.5625"/><ellipse cx="18" cy="85.2109" fill="#84BE84" rx="3" ry="3" style="stroke:#038048;stroke-width:1;"/><text fill="#000000" font-family="sans-serif" font-size="14" lengthAdjust="spacing" textLength="211.5791" x="27" y="88.5576">cargarProducto(nombre): void</text><ellipse cx="18" cy="101.5078" fill="#84BE84" rx="3" ry="3" style="stroke:#038048;stroke-width:1;"/><text fill="#000000" font-family="sans-serif" font-size="14" lengthAdjust="spacing" textLength="218.0254" x="27" y="104.8545">actualizarStock(cantidad): void</text></g><!--class CarritoView--><g id="elem_CarritoView"><rect codeLine="43" fill="#F1F1F1" height="72.5625" id="CarritoView" rx="2.5" ry="2.5" style="stroke:#181818;stroke-width:0.5;" width="128.71" x="627.5" y="23"/><ellipse cx="649.4161" cy="43.1328" fill="#ADD1B2" rx="11" ry="11" style="stroke:#181818;stroke-width:1;"/><path d="M652.3849,48.7734 Q651.8067,49.0703 651.1661,49.2109 Q650.5255,49.3672 649.8224,49.3672 Q647.3224,49.3672 645.9942,47.7266 Q644.6817,46.0703 644.6817,42.9453 Q644.6817,39.8203 645.9942,38.1641 Q647.3224,36.5078 649.8224,36.5078 Q650.5255,36.5078 651.1661,36.6641 Q651.8224,36.8203 652.3849,37.1172 L652.3849,39.8359 Q651.7599,39.2578 651.1661,38.9922 Q650.5724,38.7109 649.9474,38.7109 Q648.6036,38.7109 647.9161,39.7891 Q647.2286,40.8516 647.2286,42.9453 Q647.2286,45.0391 647.9161,46.1172 Q648.6036,47.1797 649.9474,47.1797 Q650.5724,47.1797 651.1661,46.9141 Q651.7599,46.6328 652.3849,46.0547 L652.3849,48.7734 Z " fill="#000000"/><text fill="#000000" font-family="sans-serif" font-size="12" font-style="italic" lengthAdjust="spacing" textLength="82.6992" x="664.2738" y="39.1387">&#171;component&#187;</text><text fill="#000000" font-family="sans-serif" font-size="14" lengthAdjust="spacing" textLength="81.3408" x="664.953" y="54.9639">CarritoView</text><line style="stroke:#181818;stroke-width:0.5;" x1="628.5" x2="755.21" y1="63.2656" y2="63.2656"/><ellipse cx="638.5" cy="76.9141" fill="transparent" rx="3" ry="3" style="stroke:#038048;stroke-width:1;"/><text fill="#000000" font-family="sans-serif" font-size="14" lengthAdjust="spacing" textLength="102.71" x="647.5" y="80.2607">carrito: Carrito</text><line style="stroke:#181818;stroke-width:0.5;" x1="628.5" x2="755.21" y1="87.5625" y2="87.5625"/></g><!--class Navbar--><g id="elem_Navbar"><rect codeLine="47" fill="#F1F1F1" height="72.5625" id="Navbar" rx="2.5" ry="2.5" style="stroke:#181818;stroke-width:0.5;" width="169.6299" x="792" y="23"/><ellipse cx="833.5188" cy="43.1328" fill="#ADD1B2" rx="11" ry="11" style="stroke:#181818;stroke-width:1;"/><path d="M836.4875,48.7734 Q835.9094,49.0703 835.2688,49.2109 Q834.6282,49.3672 833.925,49.3672 Q831.425,49.3672 830.0969,47.7266 Q828.7844,46.0703 828.7844,42.9453 Q828.7844,39.8203 830.0969,38.1641 Q831.425,36.5078 833.925,36.5078 Q834.6282,36.5078 835.2688,36.6641 Q835.925,36.8203 836.4875,37.1172 L836.4875,39.8359 Q835.8625,39.2578 835.2688,38.9922 Q834.675,38.7109 834.05,38.7109 Q832.7063,38.7109 832.0188,39.7891 Q831.3313,40.8516 831.3313,42.9453 Q831.3313,45.0391 832.0188,46.1172 Q832.7063,47.1797 834.05,47.1797 Q834.675,47.1797 835.2688,46.9141 Q835.8625,46.6328 836.4875,46.0547 L836.4875,48.7734 Z " fill="#000000"/><text fill="#000000" font-family="sans-serif" font-size="12" font-style="italic" lengthAdjust="spacing" textLength="82.6992" x="851.4119" y="39.1387">&#171;component&#187;</text><text fill="#000000" font-family="sans-serif" font-size="14" lengthAdjust="spacing" textLength="50.5586" x="867.4822" y="54.9639">Navbar</text><line style="stroke:#181818;stroke-width:0.5;" x1="793" x2="960.6299" y1="63.2656" y2="63.2656"/><ellipse cx="803" cy="76.9141" fill="transparent" rx="3" ry="3" style="stroke:#038048;stroke-width:1;"/><text fill="#000000" font-family="sans-serif" font-size="14" lengthAdjust="spacing" textLength="143.6299" x="812" y="80.2607">totalCarrito: number</text><line style="stroke:#181818;stroke-width:0.5;" x1="793" x2="960.6299" y1="87.5625" y2="87.5625"/></g><!--link TiendaView to Producto--><g id="link_TiendaView_Producto"><path codeLine="51" d="M366.94,112.1 C337.75,137.19 306.7709,163.7998 275.1609,190.9598 " fill="transparent" id="TiendaView-to-Producto" style="stroke:#181818;stroke-width:1;"/><polygon fill="#181818" points="270.61,194.87,280.0431,192.0386,274.4024,191.6115,274.8295,185.9708,270.61,194.87" style="stroke:#181818;stroke-width:1;"/></g><!--link TiendaView to Carrito--><g id="link_TiendaView_Carrito"><path codeLine="52" d="M497.15,112.1 C528.76,135.35 561.8872,159.7242 596.6672,185.3142 " fill="transparent" id="TiendaView-to-Carrito" style="stroke:#181818;stroke-width:1;"/><polygon fill="#181818" points="601.5,188.87,596.6213,180.3144,597.4727,185.9068,591.8802,186.7581,601.5,188.87" style="stroke:#181818;stroke-width:1;"/><text fill="#000000" font-family="sans-serif" font-size="13" lengthAdjust="spacing" textLength="22.9785" x="558" y="155.0669">usa</text></g><!--link ProductoView to Producto--><g id="link_ProductoView_Producto"><path codeLine="53" d="M144.14,112.1 C151.33,136.6 158.3398,160.523 166.1698,187.193 " fill="transparent" id="ProductoView-to-Producto" style="stroke:#181818;stroke-width:1;"/><polygon fill="#181818" points="167.86,192.95,169.1627,183.1877,166.4515,188.1525,161.4867,185.4413,167.86,192.95" style="stroke:#181818;stroke-width:1;"/></g><!--link CarritoView to Carrito--><g id="link_CarritoView_Carrito"><path codeLine="54" d="M694.26,96.12 C695.89,121.64 697.749,150.9821 699.769,182.7321 " fill="transparent" id="CarritoView-to-Carrito" style="stroke:#181818;stroke-width:1;"/><polygon fill="#181818" points="700.15,188.72,703.5705,179.4842,699.8325,183.7301,695.5866,179.9921,700.15,188.72" style="stroke:#181818;stroke-width:1;"/></g><!--link Navbar to Carrito--><g id="link_Navbar_Carrito"><path codeLine="55" d="M847.04,96.12 C825.58,121.64 799.7217,152.3779 773.0217,184.1279 " fill="transparent" id="Navbar-to-Carrito" style="stroke:#181818;stroke-width:1;"/><polygon fill="#181818" points="769.16,188.72,778.0139,184.4063,772.3781,184.8933,771.8911,179.2574,769.16,188.72" style="stroke:#181818;stroke-width:1;"/><text fill="#000000" font-family="sans-serif" font-size="13" lengthAdjust="spacing" textLength="51.981" x="807" y="155.0669">observa</text></g><!--link Carrito to ProductoCarrito--><g id="link_Carrito_ProductoCarrito"><path codeLine="56" d="M705,343.16 C705,368.52 705,390.27 705,413.79 " fill="transparent" id="Carrito-to-ProductoCarrito" style="stroke:#181818;stroke-width:1;"/><polygon fill="#181818" points="705,419.79,709,410.79,705,414.79,701,410.79,705,419.79" style="stroke:#181818;stroke-width:1;"/></g><!--link Carrito to Firestore--><g id="link_Carrito_Firestore"><path codeLine="57" d="M612.59,343.16 C576.31,373.06 540.6202,402.4641 509.4602,428.1441 " fill="transparent" id="Carrito-to-Firestore" style="stroke:#181818;stroke-width:1;"/><polygon fill="#181818" points="504.83,431.96,514.3193,429.3229,508.6885,428.7801,509.2314,423.1493,504.83,431.96" style="stroke:#181818;stroke-width:1;"/><text fill="#000000" font-family="sans-serif" font-size="13" lengthAdjust="spacing" textLength="104.3428" x="571" y="386.0669">sincroniza stock</text></g><!--link TiendaView to Firestore--><g id="link_TiendaView_Firestore"><path codeLine="58" d="M425.87,112.15 C425.11,168.87 425.25,262.59 432,343 C434.5,372.79 438.5216,400.1453 442.9116,425.8953 " fill="transparent" id="TiendaView-to-Firestore" style="stroke:#181818;stroke-width:1;"/><polygon fill="#181818" points="443.92,431.81,446.3506,422.2658,443.0797,426.8811,438.4643,423.6103,443.92,431.81" style="stroke:#181818;stroke-width:1;"/><text fill="#000000" font-family="sans-serif" font-size="13" lengthAdjust="spacing" textLength="126.769" x="433" y="270.5669">consulta y modifica</text></g><!--SRC=[dLF9JiCm4BtdAtnCrVO7eggN8eu8YUM2E4pi8HgHs67i52ZYtt4M9qxA8d5BvlajundB4gmLrsnK8vqH7uaGQrAPi8v95-sVDbNE65TgHaac4xgfSkIsOfsHpt61AYXGnoH5jZQQyj9BvSQK23hvJ18vypy0C_q_XWJjI84QQwD14DxjV5J6_Rwps9B3ocPB-uV7LWmAnW8uO6azVAmoSJIasYCl3Rde1Aa8OxGUkzEBiZCEoiEGCrt5wJlekcig0iOMBgcLzE5z4_Zca3MKGn_h0js5aRQbXJHz4qsjmA77V8gDwCOKmep2juHQmJtXgrUMfl9ZGks2T6ZRBgKbS7GzdNTe4gHheAGJy4thcDOJToFqMO20_HLXKZdtJ_lz-2L4M8up-s7gFxdB7ix2kObu1SSS-3lECEM1E4qokkhjTZ-riwY7RSr4Oo6PNS-C5YUFUCaGR2vbSejyX42QAGLYZ4txvXyTQSd-zPwWtw5buFYiDDesfGFnBYgZw8aaV040]--></g></svg>