<svg xmlns="http://www.w3.org/2000/svg" xmlns:xlink="http://www.w3.org/1999/xlink" contentStyleType="text/css" data-diagram-type="CLASS" height="524px" preserveAspectRatio="none" style="width:826px;height:524px;background:#FFFFFF;" version="1.1" viewBox="0 0 826 524" width="826px" zoomAndPan="magnify"><defs/><g><!--class Producto--><g id="elem_Producto"><rect codeLine="1" fill="#F1F1F1" height="145.7813" id="Producto" rx="2.5" ry="2.5" style="stroke:#181818;stroke-width:0.5;" width="162.8145" x="107.5" y="181"/><ellipse cx="153.5195" cy="197" fill="#ADD1B2" rx="11" ry="11" style="stroke:#181818;stroke-width:1;"/><path d="M156.4883,202.6406 Q155.9102,202.9375 155.2695,203.0781 Q154.6289,203.2344 153.9258,203.2344 Q151.4258,203.2344 150.0977,201.5938 Q148.7852,199.9375 148.7852,196.8125 Q148.7852,193.6875 150.0977,192.0313 Q151.4258,190.375 153.9258,190.375 Q154.6289,190.375 155.2695,190.5313 Q155.9258,190.6875 156.4883,190.9844 L156.4883,193.7031 Q155.8633,193.125 155.2695,192.8594 Q154.6758,192.5781 154.0508,192.5781 Q152.707,192.5781 152.0195,193.6563 Q151.332,194.7188 151.332,196.8125 Q151.332,198.9063 152.0195,199.9844 Q152.707,201.0469 154.0508,201.0469 Q154.6758,201.0469 155.2695,200.7813 Q155.8633,200.5 156.4883,199.9219 L156.4883,202.6406 Z " fill="#000000"/><text fill="#000000" font-family="sans-serif" font-size="14" lengthAdjust="spacing" textLength="62.2754" x="174.0195" y="201.8467">Producto</text><line style="stroke:#181818;stroke-width:0.5;" x1="108.5" x2="269.3145" y1="213" y2="213"/><ellipse cx="118.5" cy="226.6484" fill="transparent" rx="3" ry="3" style="stroke:#038048;stroke-width:1;"/><text fill="#000000" font-family="sans-serif" font-size="14" lengthAdjust="spacing" textLength="62.1318" x="127.5" y="229.9951">id: string</text><ellipse cx="118.5" cy="242.9453" fill="transparent" rx="3" ry="3" style="stroke:#038048;stroke-width:1;"/><text fill="#000000" font-family="sans-serif" font-size="14" lengthAdjust="spacing" textLength="103.6875" x="127.5" y="246.292">nombre: string</text><ellipse cx="118.5" cy="259.2422" fill="transparent" rx="3" ry="3" style="stroke:#038048;stroke-width:1;"/><text fill="#000000" font-family="sans-serif" font-size="14" lengthAdjust="spacing" textLength="107.2148" x="127.5" y="262.5889">precio: number</text><ellipse cx="118.5" cy="275.5391" fill="transparent" rx="3" ry="3" style="stroke:#038048;stroke-width:1;"/><text fill="#000000" font-family="sans-serif" font-size="14" lengthAdjust="spacing" textLength="100.96" x="127.5" y="278.8857">stock: number</text><ellipse cx="118.5" cy="291.8359" fill="transparent" rx="3" ry="3" style="stroke:#038048;stroke-width:1;"/><text fill="#000000" font-family="sans-serif" font-size="14" lengthAdjust="spacing" textLength="101.835" x="127.5" y="295.1826">imagen: string</text><ellipse cx="118.5" cy="308.1328" fill="transparent" rx="3" ry="3" style="stroke:#038048;stroke-width:1;"/><text fill="#000000" font-family="sans-serif" font-size="14" lengthAdjust="spacing" textLength="136.8145" x="127.5" y="311.4795">disponible: boolean</text><line style="stroke:#181818;stroke-width:0.5;" x1="108.5" x2="269.3145" y1="318.7813" y2="318.7813"/></g><!--class Carrito--><g id="elem_Carrito"><rect codeLine="10" fill="#F1F1F1" height="145.7813" id="Carrito" rx="2.5" ry="2.5" style="stroke:#181818;stroke-width:0.5;" width="255.7695" x="564" y="181"/><ellipse cx="663.7295" cy="197" fill="#ADD1B2" rx="11" ry="11" style="stroke:#181818;stroke-width:1;"/><path d="M666.6982,202.6406 Q666.1201,202.9375 665.4795,203.0781 Q664.8389,203.2344 664.1357,203.2344 Q661.6357,203.2344 660.3076,201.5938 Q658.9951,199.9375 658.9951,196.8125 Q658.9951,193.6875 660.3076,192.0313 Q661.6357,190.375 664.1357,190.375 Q664.8389,190.375 665.4795,190.5313 Q666.1357,190.6875 666.6982,190.9844 L666.6982,193.7031 Q666.0732,193.125 665.4795,192.8594 Q664.8857,192.5781 664.2607,192.5781 Q662.917,192.5781 662.2295,193.6563 Q661.542,194.7188 661.542,196.8125 Q661.542,198.9063 662.2295,199.9844 Q662.917,201.0469 664.2607,201.0469 Q664.8857,201.0469 665.4795,200.7813 Q666.0732,200.5 666.6982,199.9219 L666.6982,202.6406 Z " fill="#000000"/><text fill="#000000" font-family="sans-serif" font-size="14" lengthAdjust="spacing" textLength="47.8105" x="684.2295" y="201.8467">Carrito</text><line style="stroke:#181818;stroke-width:0.5;" x1="565" x2="818.7695" y1="213" y2="213"/><rect fill="transparent" height="6" style="stroke:#C82930;stroke-width:1;" width="6" x="572" y="223.6484"/><text fill="#000000" font-family="sans-serif" font-size="14" lengthAdjust="spacing" textLength="169.1006" x="584" y="229.9951">items: ProductoCarrito[]</text><line style="stroke:#181818;stroke-width:0.5;" x1="565" x2="818.7695" y1="237.2969" y2="237.2969"/><ellipse cx="575" cy="250.9453" fill="#84BE84" rx="3" ry="3" style="stroke:#038048;stroke-width:1;"/><text fill="#000000" font-family="sans-serif" font-size="14" lengthAdjust="spacing" textLength="229.7695" x="584" y="254.292">agregarProducto(producto): void</text><ellipse cx="575" cy="267.2422" fill="#84BE84" rx="3" ry="3" style="stroke:#038048;stroke-width:1;"/><text fill="#000000" font-family="sans-serif" font-size="14" lengthAdjust="spacing" textLength="166.2432" x="584" y="270.5889">quitarProducto(id): void</text><ellipse cx="575" cy="283.5391" fill="#84BE84" rx="3" ry="3" style="stroke:#038048;stroke-width:1;"/><text fill="#000000" font-family="sans-serif" font-size="14" lengthAdjust="spacing" textLength="131.667" x="584" y="286.8857">restarUno(id): void</text><ellipse cx="575" cy="299.8359" fill="#84BE84" rx="3" ry="3" style="stroke:#038048;stroke-width:1;"/><text fill="#000000" font-family="sans-serif" font-size="14" lengthAdjust="spacing" textLength="169.7021" x="584" y="303.1826">totalCantidad(): number</text><ellipse cx="575" cy="316.1328" fill="#84BE84" rx="3" ry="3" style="stroke:#038048;stroke-width:1;"/><text fill="#000000" font-family="sans-serif" font-size="14" lengthAdjust="spacing" textLength="149.707" x="584" y="319.4795">totalPrecio(): number</text></g><!--class ProductoCarrito--><g id="elem_ProductoCarrito"><rect codeLine="19" fill="#F1F1F1" height="113.1875" id="ProductoCarrito" rx="2.5" ry="2.5" style="stroke:#181818;stroke-width:0.5;" width="150.6875" x="616.5" y="404"/><ellipse cx="635.3707" cy="420" fill="#ADD1B2" rx="11" ry="11" style="stroke:#181818;stroke-width:1;"/><path d="M638.3395,425.6406 Q637.7613,425.9375 637.1207,426.0781 Q636.4801,426.2344 635.777,426.2344 Q633.277,426.2344 631.9488,424.5938 Q630.6363,422.9375 630.6363,419.8125 Q630.6363,416.6875 631.9488,415.0313 Q633.277,413.375 635.777,413.375 Q636.4801,413.375 637.1207,413.5313 Q637.777,413.6875 638.3395,413.9844 L638.3395,416.7031 Q637.7145,416.125 637.1207,415.8594 Q636.527,415.5781 635.902,415.5781 Q634.5582,415.5781 633.8707,416.6563 Q633.1832,417.7188 633.1832,419.8125 Q633.1832,421.9063 633.8707,422.9844 Q634.5582,424.0469 635.902,424.0469 Q636.527,424.0469 637.1207,423.7813 Q637.7145,423.5 638.3395,422.9219 L638.3395,425.6406 Z " fill="#000000"/><text fill="#000000" font-family="sans-serif" font-size="14" lengthAdjust="spacing" textLength="110.0859" x="650.2309" y="424.8467">ProductoCarrito</text><line style="stroke:#181818;stroke-width:0.5;" x1="617.5" x2="766.1875" y1="436" y2="436"/><ellipse cx="627.5" cy="449.6484" fill="transparent" rx="3" ry="3" style="stroke:#038048;stroke-width:1;"/><text fill="#000000" font-family="sans-serif" font-size="14" lengthAdjust="spacing" textLength="62.1318" x="636.5" y="452.9951">id: string</text><ellipse cx="627.5" cy="465.9453" fill="transparent" rx="3" ry="3" style="stroke:#038048;stroke-width:1;"/><text fill="#000000" font-family="sans-serif" font-size="14" lengthAdjust="spacing" textLength="103.6875" x="636.5" y="469.292">nombre: string</text><ellipse cx="627.5" cy="482.2422" fill="transparent" rx="3" ry="3" style="stroke:#038048;stroke-width:1;"/><text fill="#000000" font-family="sans-serif" font-size="14" lengthAdjust="spacing" textLength="107.2148" x="636.5" y="485.5889">precio: number</text><ellipse cx="627.5" cy="498.5391" fill="transparent" rx="3" ry="3" style="stroke:#038048;stroke-width:1;"/><text fill="#000000" font-family="sans-serif" font-size="14" lengthAdjust="spacing" textLength="124.6875" x="636.5" y="501.8857">cantidad: number</text><line style="stroke:#181818;stroke-width:0.5;" x1="617.5" x2="766.1875" y1="509.1875" y2="509.1875"/></g><!--class Firestore--><g id="elem_Firestore"><rect codeLine="26" fill="#F1F1F1" height="80.5938" id="Firestore" rx="2.5" ry="2.5" style="stroke:#181818;stroke-width:0.5;" width="210.9189" x="333.5" y="420"/><ellipse cx="403.6948" cy="436" fill="#ADD1B2" rx="11" ry="11" style="stroke:#181818;stroke-width:1;"/><path d="M406.6636,441.6406 Q406.0854,441.9375 405.4448,442.0781 Q404.8042,442.2344 404.1011,442.2344 Q401.6011,442.2344 400.2729,440.5938 Q398.9604,438.9375 398.9604,435.8125 Q398.9604,432.6875 400.2729,431.0313 Q401.6011,429.375 404.1011,429.375 Q404.8042,429.375 405.4448,429.5313 Q406.1011,429.6875 406.6636,429.9844 L406.6636,432.7031 Q406.0386,432.125 405.4448,431.8594 Q404.8511,431.5781 404.2261,431.5781 Q402.8823,431.5781 402.1948,432.6563 Q401.5073,433.7188 401.5073,435.8125 Q401.5073,437.9063 402.1948,438.9844 Q402.8823,440.0469 404.2261,440.0469 Q404.8511,440.0469 405.4448,439.7813 Q406.0386,439.5 406.6636,438.9219 L406.6636,441.6406 Z " fill="#000000"/><text fill="#000000" font-family="sans-serif" font-size="14" lengthAdjust="spacing" textLength="62.0293" x="424.1948" y="440.8467">Firestore</text><line style="stroke:#181818;stroke-width:0.5;" x1="334.5" x2="543.4189" y1="452" y2="452"/><line style="stroke:#181818;stroke-width:0.5;" x1="334.5" x2="543.4189" y1="460" y2="460"/><ellipse cx="344.5" cy="473.6484" fill="#84BE84" rx="3" ry="3" style="stroke:#038048;stroke-width:1;"/><text fill="#000000" font-family="sans-serif" font-size="14" lengthAdjust="spacing" textLength="150.6162" x="353.5" y="476.9951">getDocs(): Producto[]</text><ellipse cx="344.5" cy="489.9453" fill="#84BE84" rx="3" ry="3" style="stroke:#038048;stroke-width:1;"/><text fill="#000000" font-family="sans-serif" font-size="14" lengthAdjust="spacing" textLength="184.9189" x="353.5" y="493.292">updateDoc(id, stock): void</text></g><!--class TiendaView--><g id="elem_TiendaView"><rect codeLine="31" fill="#F1F1F1" height="96.8906" id="TiendaView" rx="2.5" ry="2.5" style="stroke:#181818;stroke-width:0.5;" width="281.2471" x="286.5" y="7"/><ellipse cx="382.4116" cy="23" fill="#ADD1B2" rx="11" ry="11" style="stroke:#181818;stroke-width:1;"/><path d="M385.3804,28.6406 Q384.8022,28.9375 384.1616,29.0781 Q383.521,29.2344 382.8179,29.2344 Q380.3179,29.2344 378.9897,27.5938 Q377.6772,25.9375 377.6772,22.8125 Q377.6772,19.6875 378.9897,18.0313 Q380.3179,16.375 382.8179,16.375 Q383.521,16.375 384.1616,16.5313 Q384.8179,16.6875 385.3804,16.9844 L385.3804,19.7031 Q384.7554,19.125 384.1616,18.8594 Q383.5679,18.5781 382.9429,18.5781 Q381.5991,18.5781 380.9116,19.6563 Q380.2241,20.7188 380.2241,22.8125 Q380.2241,24.9063 380.9116,25.9844 Q381.5991,27.0469 382.9429,27.0469 Q383.5679,27.0469 384.1616,26.7813 Q384.7554,26.5 385.3804,25.9219 L385.3804,28.6406 Z " fill="#000000"/><text fill="#000000" font-family="sans-serif" font-size="14" lengthAdjust="spacing" textLength="80.9238" x="402.9116" y="27.8467">TiendaView</text><line style="stroke:#181818;stroke-width:0.5;" x1="287.5" x2="566.7471" y1="39" y2="39"/><ellipse cx="297.5" cy="52.6484" fill="transparent" rx="3" ry="3" style="stroke:#038048;stroke-width:1;"/><text fill="#000000" font-family="sans-serif" font-size="14" lengthAdjust="spacing" textLength="152.3799" x="306.5" y="55.9951">productos: Producto[]</text><line style="stroke:#181818;stroke-width:0.5;" x1="287.5" x2="566.7471" y1="63.2969" y2="63.2969"/><ellipse cx="297.5" cy="76.9453" fill="#84BE84" rx="3" ry="3" style="stroke:#038048;stroke-width:1;"/><text fill="#000000" font-family="sans-serif" font-size="14" lengthAdjust="spacing" textLength="164.541" x="306.5" y="80.292">cargarProductos(): void</text><ellipse cx="297.5" cy="93.2422" fill="#84BE84" rx="3" ry="3" style="stroke:#038048;stroke-width:1;"/><text fill="#000000" font-family="sans-serif" font-size="14" lengthAdjust="spacing" textLength="255.2471" x="306.5" y="96.5889">actualizarStock(p: Producto, n): void</text></g><!--class ProductoView--><g id="elem_ProductoView"><rect codeLine="37" fill="#F1F1F1" height="96.8906" id="ProductoView" rx="2.5" ry="2.5" style="stroke:#181818;stroke-width:0.5;" width="244.0254" x="7" y="7"/><ellipse cx="76.8599" cy="23" fill="#ADD1B2" rx="11" ry="11" style="stroke:#181818;stroke-width:1;"/><path d="M79.8286,28.6406 Q79.2505,28.9375 78.6099,29.0781 Q77.9692,29.2344 77.2661,29.2344 Q74.7661,29.2344 73.438,27.5938 Q72.1255,25.9375 72.1255,22.8125 Q72.1255,19.6875 73.438,18.0313 Q74.7661,16.375 77.2661,16.375 Q77.9692,16.375 78.6099,16.5313 Q79.2661,16.6875 79.8286,16.9844 L79.8286,19.7031 Q79.2036,19.125 78.6099,18.8594 Q78.0161,18.5781 77.3911,18.5781 Q76.0474,18.5781 75.3599,19.6563 Q74.6724,20.7188 74.6724,22.8125 Q74.6724,24.9063 75.3599,25.9844 Q76.0474,27.0469 77.3911,27.0469 Q78.0161,27.0469 78.6099,26.7813 Q79.2036,26.5 79.8286,25.9219 L79.8286,28.6406 Z " fill="#000000"/><text fill="#000000" font-family="sans-serif" font-size="14" lengthAdjust="spacing" textLength="95.8057" x="97.3599" y="27.8467">ProductoView</text><line style="stroke:#181818;stroke-width:0.5;" x1="8" x2="250.0254" y1="39" y2="39"/><ellipse cx="18" cy="52.6484" fill="transparent" rx="3" ry="3" style="stroke:#038048;stroke-width:1;"/><text fill="#000000" font-family="sans-serif" font-size="14" lengthAdjust="spacing" textLength="134.1621" x="27" y="55.9951">producto: Producto</text><line style="stroke:#181818;stroke-width:0.5;" x1="8" x2="250.0254" y1="63.2969" y2="63.2969"/><ellipse cx="18" cy="76.9453" fill="#84BE84" rx="3" ry="3" style="stroke:#038048;stroke-width:1;"/><text fill="#000000" font-family="sans-serif" font-size="14" lengthAdjust="spacing" textLength="211.5791" x="27" y="80.292">cargarProducto(nombre): void</text><ellipse cx="18" cy="93.2422" fill="#84BE84" rx="3" ry="3" style="stroke:#038048;stroke-width:1;"/><text fill="#000000" font-family="sans-serif" font-size="14" lengthAdjust="spacing" textLength="218.0254" x="27" y="96.5889">actualizarStock(cantidad): void</text></g><!--class CarritoView--><g id="elem_CarritoView"><rect codeLine="43" fill="#F1F1F1" height="64.2969" id="CarritoView" rx="2.5" ry="2.5" style="stroke:#181818;stroke-width:0.5;" width="128.71" x="627.5" y="23.5"/><ellipse cx="649.4161" cy="39.5" fill="#ADD1B2" rx="11" ry="11" style="stroke:#181818;stroke-width:1;"/><path d="M652.3849,45.1406 Q651.8067,45.4375 651.1661,45.5781 Q650.5255,45.7344 649.8224,45.7344 Q647.3224,45.7344 645.9942,44.0938 Q644.6817,42.4375 644.6817,39.3125 Q644.6817,36.1875 645.9942,34.5313 Q647.3224,32.875 649.8224,32.875 Q650.5255,32.875 651.1661,33.0313 Q651.8224,33.1875 652.3849,33.4844 L652.3849,36.2031 Q651.7599,35.625 651.1661,35.3594 Q650.5724,35.0781 649.9474,35.0781 Q648.6036,35.0781 647.9161,36.1563 Q647.2286,37.2188 647.2286,39.3125 Q647.2286,41.4063 647.9161,42.4844 Q648.6036,43.5469 649.9474,43.5469 Q650.5724,43.5469 651.1661,43.2813 Q651.7599,43 652.3849,42.4219 L652.3849,45.1406 Z " fill="#000000"/><text fill="#000000" font-family="sans-serif" font-size="14" lengthAdjust="spacing" textLength="81.3408" x="664.953" y="44.3467">CarritoView</text><line style="stroke:#181818;stroke-width:0.5;" x1="628.5" x2="755.21" y1="55.5" y2="55.5"/><ellipse cx="638.5" cy="69.1484" fill="transparent" rx="3" ry="3" style="stroke:#038048;stroke-width:1;"/><text fill="#000000" font-family="sans-serif" font-size="14" lengthAdjust="spacing" textLength="102.71" x="647.5" y="72.4951">carrito: Carrito</text><line style="stroke:#181818;stroke-width:0.5;" x1="628.5" x2="755.21" y1="79.7969" y2="79.7969"/></g><!--link TiendaView to Producto--><g id="link_TiendaView_Producto"><path codeLine="47" d="M369.39,104.07 C339.81,128.49 307.8863,154.8394 275.4463,181.6294 " fill="transparent" id="TiendaView-to-Producto" style="stroke:#181818;stroke-width:1;"/><polygon fill="#181818" points="270.82,185.45,280.3066,182.8034,274.6753,182.2662,275.2125,176.6349,270.82,185.45" style="stroke:#181818;stroke-width:1;"/></g><!--link TiendaView to Carrito--><g id="link_TiendaView_Carrito"><path codeLine="48" d="M491.15,104.07 C522.24,127.12 555.4405,151.7362 589.9905,177.3562 " fill="transparent" id="TiendaView-to-Carrito" style="stroke:#181818;stroke-width:1;"/><polygon fill="#181818" points="594.81,180.93,589.9633,172.3562,590.7937,177.9518,585.1982,178.7823,594.81,180.93" style="stroke:#181818;stroke-width:1;"/><text fill="#000000" font-family="sans-serif" font-size="13" lengthAdjust="spacing" textLength="22.9785" x="552" y="147.0669">usa</text></g><!--link ProductoView to Producto--><g id="link_ProductoView_Producto"><path codeLine="49" d="M143.52,104.07 C150.56,127.12 157.4184,149.5714 165.2384,175.1914 " fill="transparent" id="ProductoView-to-Producto" style="stroke:#181818;stroke-width:1;"/><polygon fill="#181818" points="166.99,180.93,168.1883,171.1543,165.5303,176.1478,160.5368,173.4898,166.99,180.93" style="stroke:#181818;stroke-width:1;"/></g><!--link CarritoView to Carrito--><g id="link_CarritoView_Carrito"><path codeLine="50" d="M692,87.64 C692,112.63 692,142.74 692,174.83 " fill="transparent" id="CarritoView-to-Carrito" style="stroke:#181818;stroke-width:1;"/><polygon fill="#181818" points="692,180.83,696,171.83,692,175.83,688,171.83,692,180.83" style="stroke:#181818;stroke-width:1;"/></g><!--link Carrito to ProductoCarrito--><g id="link_Carrito_ProductoCarrito"><path codeLine="51" d="M692,327.1 C692,352.28 692,374.15 692,397.79 " fill="transparent" id="Carrito-to-ProductoCarrito" style="stroke:#181818;stroke-width:1;"/><polygon fill="#181818" points="692,403.79,696,394.79,692,398.79,688,394.79,692,403.79" style="stroke:#181818;stroke-width:1;"/></g><!--link Carrito to Firestore--><g id="link_Carrito_Firestore"><path codeLine="52" d="M602.8,327.1 C564.25,358.26 525.2864,389.7584 492.7464,416.0584 " fill="transparent" id="Carrito-to-Firestore" style="stroke:#181818;stroke-width:1;"/><polygon fill="#181818" points="488.08,419.83,497.594,417.2836,491.9687,416.687,492.5652,411.0617,488.08,419.83" style="stroke:#181818;stroke-width:1;"/><text fill="#000000" font-family="sans-serif" font-size="13" lengthAdjust="spacing" textLength="97.062" x="566" y="370.0669">actualiza stock</text></g><!--link TiendaView to Firestore--><g id="link_TiendaView_Firestore"><path codeLine="53" d="M423.23,104.06 C421.57,127.25 419.82,155.56 419,181 C416.92,245.86 414.14,262.29 419,327 C421.36,358.43 425.7778,387.8012 430.4078,414.0512 " fill="transparent" id="TiendaView-to-Firestore" style="stroke:#181818;stroke-width:1;"/><polygon fill="#181818" points="431.45,419.96,433.8259,410.402,430.5815,415.036,425.9475,411.7916,431.45,419.96" style="stroke:#181818;stroke-width:1;"/><text fill="#000000" font-family="sans-serif" font-size="13" lengthAdjust="spacing" textLength="126.769" x="420" y="258.5669">consulta y modifica</text></g><!--SRC=[dL6xJiGm4Epp5Ivpuku7ND0SeZu9ZWPHREmbMf5uWnyWGFmxSH8dlWHHqDapkpkpiwe1vyJ9iWxAi_WgXBWYBONpbamTVuRRocAET1OLiHGcj1NQY3ZFwYK7g8KQJTwaoNLig6hwKHLpWs2Axw9GW_uHhAL9_a0UMoTdJnFt-1IdG6sn1fkuifiUEodUc7GiUGtaimhI6MVHzTpPh63F7feZ64yQTBdB5nceqx1mHip6LoR_cv-QjBS2jnGziyLnT8t-XfMBLfBq64peD7ZikNwplHZkaHQSPzqJ6WqFXE_Zi1IUMmzJOBEG1xKK5IWVeA5Fi7THe-oMthqm6yd4RKMNlgrYEMRsXsmAR2Cu7MBHKoCW4nDBio0EX-l5o0fFHvKYE2WkLhbeopMpleHV5F_6BJUMObvqlE7QKbwgsBZGU10VecLDpwJW1m00]--></g></svg>