<svg xmlns="http://www.w3.org/2000/svg" xmlns:xlink="http://www.w3.org/1999/xlink" contentStyleType="text/css" data-diagram-type="DESCRIPTION" height="587px" preserveAspectRatio="none" style="width:955px;height:587px;background:#FFFFFF;" version="1.1" viewBox="0 0 955 587" width="955px" zoomAndPan="magnify"><defs/><g><!--cluster Cliente (Navegador)--><g id="cluster_Cliente (Navegador)"><path d="M8.5,144.5 L168.4902,144.5 A3.75,3.75 0 0 1 170.9902,147 L177.9902,166.7969 L746.5,166.7969 A2.5,2.5 0 0 1 749,169.2969 L749,407 A2.5,2.5 0 0 1 746.5,409.5 L8.5,409.5 A2.5,2.5 0 0 1 6,407 L6,147 A2.5,2.5 0 0 1 8.5,144.5 " fill="transparent" style="stroke:#000000;stroke-width:1.5;"/><line style="stroke:#000000;stroke-width:1.5;" x1="6" x2="177.9902" y1="166.7969" y2="166.7969"/><text fill="#000000" font-family="sans-serif" font-size="14" font-weight="bold" lengthAdjust="spacing" textLength="158.9902" x="10" y="159.4951">Cliente (Navegador)</text></g><!--cluster Vue App (TechStore)--><g id="cluster_Vue App (TechStore)"><rect fill="transparent" height="97" rx="2.5" ry="2.5" style="stroke:#181818;stroke-width:1;" width="695" x="30" y="187.5"/><rect fill="transparent" height="10" style="stroke:#181818;stroke-width:1;" width="15" x="705" y="192.5"/><rect fill="transparent" height="2" style="stroke:#181818;stroke-width:1;" width="4" x="703" y="194.5"/><rect fill="transparent" height="2" style="stroke:#181818;stroke-width:1;" width="4" x="703" y="198.5"/><text fill="#000000" font-family="sans-serif" font-size="14" font-weight="bold" lengthAdjust="spacing" textLength="163.8232" x="295.5884" y="213.4951">Vue App (TechStore)</text></g><!--cluster Firebase Firestore--><g id="cluster_Firebase Firestore"><path d="M579,468.5 C579,458.5 685,458.5 685,458.5 C685,458.5 791,458.5 791,468.5 L791,560.5 C791,570.5 685,570.5 685,570.5 C685,570.5 579,570.5 579,560.5 L579,468.5 " fill="transparent" style="stroke:#181818;stroke-width:1;"/><path d="M579,468.5 C579,478.5 685,478.5 685,478.5 C685,478.5 791,478.5 791,468.5 " fill="transparent" style="stroke:#181818;stroke-width:1;"/><text fill="#000000" font-family="sans-serif" font-size="14" font-weight="bold" lengthAdjust="spacing" textLength="144.7373" x="612.6313" y="493.4951">Firebase Firestore</text></g><!--entity Store--><g id="elem_Store"><rect fill="#F1F1F1" height="46.2969" rx="2.5" ry="2.5" style="stroke:#181818;stroke-width:0.5;" width="115.4346" x="384.5" y="347.5"/><rect fill="#F1F1F1" height="10" style="stroke:#181818;stroke-width:0.5;" width="15" x="479.9346" y="352.5"/><rect fill="#F1F1F1" height="2" style="stroke:#181818;stroke-width:0.5;" width="4" x="477.9346" y="354.5"/><rect fill="#F1F1F1" height="2" style="stroke:#181818;stroke-width:0.5;" width="4" x="477.9346" y="358.5"/><text fill="#000000" font-family="sans-serif" font-size="14" lengthAdjust="spacing" textLength="75.4346" x="399.5" y="380.4951">Pinia Store</text></g><!--entity Navbar.vue--><g id="elem_Navbar.vue"><rect fill="#F1F1F1" height="46.2969" rx="2.5" ry="2.5" style="stroke:#181818;stroke-width:0.5;" width="120.7803" x="46.5" y="222.5"/><rect fill="#F1F1F1" height="10" style="stroke:#181818;stroke-width:0.5;" width="15" x="147.2803" y="227.5"/><rect fill="#F1F1F1" height="2" style="stroke:#181818;stroke-width:0.5;" width="4" x="145.2803" y="229.5"/><rect fill="#F1F1F1" height="2" style="stroke:#181818;stroke-width:0.5;" width="4" x="145.2803" y="233.5"/><text fill="#000000" font-family="sans-serif" font-size="14" lengthAdjust="spacing" textLength="80.7803" x="61.5" y="255.4951">Navbar.vue</text></g><!--entity Tienda.vue--><g id="elem_Tienda.vue"><rect fill="#F1F1F1" height="46.2969" rx="2.5" ry="2.5" style="stroke:#181818;stroke-width:0.5;" width="117.6152" x="591" y="222.5"/><rect fill="#F1F1F1" height="10" style="stroke:#181818;stroke-width:0.5;" width="15" x="688.6152" y="227.5"/><rect fill="#F1F1F1" height="2" style="stroke:#181818;stroke-width:0.5;" width="4" x="686.6152" y="229.5"/><rect fill="#F1F1F1" height="2" style="stroke:#181818;stroke-width:0.5;" width="4" x="686.6152" y="233.5"/><text fill="#000000" font-family="sans-serif" font-size="14" lengthAdjust="spacing" textLength="77.6152" x="606" y="255.4951">Tienda.vue</text></g><!--entity ProductoView.vue--><g id="elem_ProductoView.vue"><rect fill="#F1F1F1" height="46.2969" rx="2.5" ry="2.5" style="stroke:#181818;stroke-width:0.5;" width="166.0273" x="390" y="222.5"/><rect fill="#F1F1F1" height="10" style="stroke:#181818;stroke-width:0.5;" width="15" x="536.0273" y="227.5"/><rect fill="#F1F1F1" height="2" style="stroke:#181818;stroke-width:0.5;" width="4" x="534.0273" y="229.5"/><rect fill="#F1F1F1" height="2" style="stroke:#181818;stroke-width:0.5;" width="4" x="534.0273" y="233.5"/><text fill="#000000" font-family="sans-serif" font-size="14" lengthAdjust="spacing" textLength="126.0273" x="405" y="255.4951">ProductoView.vue</text></g><!--entity CarritoView.vue--><g id="elem_CarritoView.vue"><rect fill="#F1F1F1" height="46.2969" rx="2.5" ry="2.5" style="stroke:#181818;stroke-width:0.5;" width="151.5625" x="203" y="222.5"/><rect fill="#F1F1F1" height="10" style="stroke:#181818;stroke-width:0.5;" width="15" x="334.5625" y="227.5"/><rect fill="#F1F1F1" height="2" style="stroke:#181818;stroke-width:0.5;" width="4" x="332.5625" y="229.5"/><rect fill="#F1F1F1" height="2" style="stroke:#181818;stroke-width:0.5;" width="4" x="332.5625" y="233.5"/><text fill="#000000" font-family="sans-serif" font-size="14" lengthAdjust="spacing" textLength="111.5625" x="218" y="255.4951">CarritoView.vue</text></g><!--entity colecci?n productos--><g id="elem_colecci&#243;n productos"><rect fill="#F1F1F1" height="46.2969" rx="2.5" ry="2.5" style="stroke:#181818;stroke-width:0.5;" width="179.9521" x="595" y="508.5"/><rect fill="#F1F1F1" height="10" style="stroke:#181818;stroke-width:0.5;" width="15" x="754.9521" y="513.5"/><rect fill="#F1F1F1" height="2" style="stroke:#181818;stroke-width:0.5;" width="4" x="752.9521" y="515.5"/><rect fill="#F1F1F1" height="2" style="stroke:#181818;stroke-width:0.5;" width="4" x="752.9521" y="519.5"/><text fill="#000000" font-family="sans-serif" font-size="14" lengthAdjust="spacing" textLength="139.9521" x="610" y="541.4951">colecci&#243;n productos</text></g><!--entity Usuario--><g id="elem_Usuario"><ellipse cx="364.1021" cy="14" fill="#F1F1F1" rx="8" ry="8" style="stroke:#181818;stroke-width:0.5;"/><path d="M364.1021,22 L364.1021,49 M351.1021,30 L377.1021,30 M364.1021,49 L351.1021,64 M364.1021,49 L377.1021,64 " fill="transparent" style="stroke:#181818;stroke-width:0.5;"/><text fill="#000000" font-family="sans-serif" font-size="14" lengthAdjust="spacing" textLength="53.2041" x="337.5" y="78.4951">Usuario</text></g><!--link Usuario to Navbar.vue--><g id="link_Usuario_Navbar.vue"><path d="M337.19,49.5 C300.93,57.38 235.74,75.64 192,111.5 C154.81,141.99 131.0639,187.6826 118.3039,216.8626 " fill="transparent" id="Usuario-to-Navbar.vue" style="stroke:#181818;stroke-width:1;"/><polygon fill="#181818" points="115.9,222.36,123.1708,215.7166,117.9033,217.7789,115.841,212.5113,115.9,222.36" style="stroke:#181818;stroke-width:1;"/><text fill="#000000" font-family="sans-serif" font-size="13" lengthAdjust="spacing" textLength="104.0952" x="193" y="124.5669">Visualiza carrito</text></g><!--link Usuario to Tienda.vue--><g id="link_Usuario_Tienda.vue"><path d="M390.75,50.11 C434.05,60.4 520.11,86.03 574,136.5 C601.28,162.04 621.6505,193.6321 635.0205,217.0021 " fill="transparent" id="Usuario-to-Tienda.vue" style="stroke:#181818;stroke-width:1;"/><polygon fill="#181818" points="638,222.21,637.0028,212.4118,635.5171,217.87,630.0588,216.3844,638,222.21" style="stroke:#181818;stroke-width:1;"/><text fill="#000000" font-family="sans-serif" font-size="13" lengthAdjust="spacing" textLength="103.7207" x="565" y="124.5669">A&#241;ade producto</text></g><!--link Usuario to ProductoView.vue--><g id="link_Usuario_ProductoView.vue"><path d="M390.59,70.85 C401.37,82.57 413.3,96.98 422,111.5 C443.74,147.77 457.5291,189.1645 465.3991,216.4845 " fill="transparent" id="Usuario-to-ProductoView.vue" style="stroke:#181818;stroke-width:1;"/><polygon fill="#181818" points="467.06,222.25,468.4124,212.4944,465.6759,217.4454,460.725,214.7089,467.06,222.25" style="stroke:#181818;stroke-width:1;"/><text fill="#000000" font-family="sans-serif" font-size="13" lengthAdjust="spacing" textLength="92.9678" x="432" y="124.5669">Modifica stock</text></g><!--link Usuario to CarritoView.vue--><g id="link_Usuario_CarritoView.vue"><path d="M337.3,73.4 C328.14,84.61 318.55,97.99 312,111.5 C294.25,148.1 286.3327,189.2095 282.4727,216.4195 " fill="transparent" id="Usuario-to-CarritoView.vue" style="stroke:#181818;stroke-width:1;"/><polygon fill="#181818" points="281.63,222.36,286.8544,214.011,282.3323,217.4096,278.9337,212.8874,281.63,222.36" style="stroke:#181818;stroke-width:1;"/><text fill="#000000" font-family="sans-serif" font-size="13" lengthAdjust="spacing" textLength="104.311" x="313" y="124.5669">Gestiona carrito</text></g><!--link Tienda.vue to Store--><g id="link_Tienda.vue_Store"><path d="M613.73,268.61 C601.18,276.23 586.99,284.78 574,292.5 C542.53,311.2 511.8217,329.1123 485.4117,344.4123 " fill="transparent" id="Tienda.vue-to-Store" style="stroke:#181818;stroke-width:1;"/><polygon fill="#181818" points="480.22,347.42,490.0127,346.3696,484.5464,344.9136,486.0024,339.4473,480.22,347.42" style="stroke:#181818;stroke-width:1;"/><text fill="#000000" font-family="sans-serif" font-size="13" lengthAdjust="spacing" textLength="108.0879" x="560" y="313.5669">agrega al carrito</text></g><!--link ProductoView.vue to Store--><g id="link_ProductoView.vue_Store"><path d="M428.96,268.53 C417.05,276.81 405.63,287.46 399,300.5 C390.75,316.73 397.5412,329.8342 410.4712,343.0942 " fill="transparent" id="ProductoView.vue-to-Store" style="stroke:#181818;stroke-width:1;"/><polygon fill="#181818" points="414.66,347.39,411.2406,338.1538,411.1693,343.8102,405.5129,343.7389,414.66,347.39" style="stroke:#181818;stroke-width:1;"/><text fill="#000000" font-family="sans-serif" font-size="13" lengthAdjust="spacing" textLength="108.1514" x="400" y="313.5669">agrega producto</text></g><!--link CarritoView.vue to Store--><g id="link_CarritoView.vue_Store"><path d="M282.15,268.64 C285.42,284.13 291.99,304.34 305,317.5 C326.19,338.94 351.3367,350.0822 378.4467,357.5722 " fill="transparent" id="CarritoView.vue-to-Store" style="stroke:#181818;stroke-width:1;"/><polygon fill="#181818" points="384.23,359.17,376.6202,352.9177,379.4106,357.8385,374.4898,360.6288,384.23,359.17" style="stroke:#181818;stroke-width:1;"/><text fill="#000000" font-family="sans-serif" font-size="13" lengthAdjust="spacing" textLength="81.415" x="306" y="313.5669">quitar/restar</text></g><!--link Store to colecci?n productos--><g id="link_Store_colecci&#243;n productos"><path d="M475.79,393.61 C522.08,423.9 599.7389,474.7154 646.0889,505.0354 " fill="transparent" id="Store-to-colecci&#243;n productos" style="stroke:#181818;stroke-width:1;"/><polygon fill="#181818" points="651.11,508.32,645.7681,500.0457,646.9257,505.5829,641.3886,506.7405,651.11,508.32" style="stroke:#181818;stroke-width:1;"/><text fill="#000000" font-family="sans-serif" font-size="13" lengthAdjust="spacing" textLength="97.062" x="549" y="438.5669">actualiza stock</text></g><!--link Tienda.vue to colecci?n productos--><g id="link_Tienda.vue_colecci&#243;n productos"><path d="M709.4,266.47 C746.1,282.24 790.21,308.23 812,347.5 C827.1,374.7 824.74,389.12 812,417.5 C794.12,457.35 759.5025,485.6383 729.2325,505.1583 " fill="transparent" id="Tienda.vue-to-colecci&#243;n productos" style="stroke:#181818;stroke-width:1;"/><polygon fill="#181818" points="724.19,508.41,733.9215,506.8941,728.3921,505.7003,729.5859,500.1708,724.19,508.41" style="stroke:#181818;stroke-width:1;"/><text fill="#000000" font-family="sans-serif" font-size="13" lengthAdjust="spacing" textLength="124.1729" x="823" y="375.0669">consulta productos</text></g><!--link ProductoView.vue to colecci?n productos--><g id="link_ProductoView.vue_colecci&#243;n productos"><path d="M513.12,268.55 C531.2,277.49 553.14,286.98 574,292.5 C593.2,297.58 648.92,286.5 663,300.5 C677.58,314.99 682.7512,447.7624 684.2912,502.4824 " fill="transparent" id="ProductoView.vue-to-colecci&#243;n productos" style="stroke:#181818;stroke-width:1;"/><polygon fill="#181818" points="684.46,508.48,688.2052,499.371,684.3193,503.482,680.2084,499.5961,684.46,508.48" style="stroke:#181818;stroke-width:1;"/><text fill="#000000" font-family="sans-serif" font-size="13" lengthAdjust="spacing" textLength="117.3999" x="681" y="375.0669">consulta producto</text></g><!--SRC=[ZP71JiCm38RlUGghft4Ot3aWJPFW19h4w6NQmND3iLQIahH30l5GY4VOY-4sLTVGJk9cEVzlV_w3L5a7Jxv6nrQf4ccFkOPaMR0sbORP0nvqZfbr5mbyAW2ohwKryWP9McjOb2NCrffU7cMExZG06x7jq5qUQhqDZRNCot3GM3cRrR8zPVq-Q2_HEOwxNohUksB32Et21D27Ieagmmftw0N_bfrkgwRmGTcGRSWMceYFFmRA3i1l6syN0SpdDn4zN4FAybRm1m85k5Wyk4p4Y-CtPheV7aj7DulXtcRyp8GWcBIFzN_34FcTdCFMd5XK1D3OsZn4YhcJhmCiUkq4m8IXPn_l7whVQgxGNJNvebCgj5lioP2R-LHrGOPRH-HddMIDhulgnERFtVB_4Ry0]--></g></svg>