<svg xmlns="http://www.w3.org/2000/svg" xmlns:xlink="http://www.w3.org/1999/xlink" contentStyleType="text/css" data-diagram-type="DESCRIPTION" height="617px" preserveAspectRatio="none" style="width:599px;height:617px;background:#FFFFFF;" version="1.1" viewBox="0 0 599 617" width="599px" zoomAndPan="magnify"><defs/><g><!--cluster Navegador--><g id="cluster_Navegador"><path d="M8.5,144.5 L95.2979,144.5 A3.75,3.75 0 0 1 97.7979,147 L104.7979,166.7969 L589.5,166.7969 A2.5,2.5 0 0 1 592,169.2969 L592,306 A2.5,2.5 0 0 1 589.5,308.5 L8.5,308.5 A2.5,2.5 0 0 1 6,306 L6,147 A2.5,2.5 0 0 1 8.5,144.5 " fill="transparent" style="stroke:#000000;stroke-width:1.5;"/><line style="stroke:#000000;stroke-width:1.5;" x1="6" x2="104.7979" y1="166.7969" y2="166.7969"/><text fill="#000000" font-family="sans-serif" font-size="14" font-weight="bold" lengthAdjust="spacing" textLength="85.7979" x="10" y="159.4951">Navegador</text></g><!--cluster Vue App (TechStore)--><g id="cluster_Vue App (TechStore)"><rect fill="transparent" height="97" rx="2.5" ry="2.5" style="stroke:#181818;stroke-width:1;" width="538" x="30" y="187.5"/><rect fill="transparent" height="10" style="stroke:#181818;stroke-width:1;" width="15" x="548" y="192.5"/><rect fill="transparent" height="2" style="stroke:#181818;stroke-width:1;" width="4" x="546" y="194.5"/><rect fill="transparent" height="2" style="stroke:#181818;stroke-width:1;" width="4" x="546" y="198.5"/><text fill="#000000" font-family="sans-serif" font-size="14" font-weight="bold" lengthAdjust="spacing" textLength="163.8232" x="217.0884" y="213.4951">Vue App (TechStore)</text></g><!--cluster Firebase Firestore--><g id="cluster_Firebase Firestore"><path d="M251,482.5 C251,472.5 374.5,472.5 374.5,472.5 C374.5,472.5 498,472.5 498,482.5 L498,590.5 C498,600.5 374.5,600.5 374.5,600.5 C374.5,600.5 251,600.5 251,590.5 L251,482.5 " fill="transparent" style="stroke:#181818;stroke-width:1;"/><path d="M251,482.5 C251,492.5 374.5,492.5 374.5,492.5 C374.5,492.5 498,492.5 498,482.5 " fill="transparent" style="stroke:#181818;stroke-width:1;"/><text fill="#000000" font-family="sans-serif" font-size="14" font-weight="bold" lengthAdjust="spacing" textLength="144.7373" x="302.1313" y="507.4951">Firebase Firestore</text></g><!--entity Tienda.vue--><g id="elem_Tienda.vue"><rect fill="#F1F1F1" height="46.2969" rx="2.5" ry="2.5" style="stroke:#181818;stroke-width:0.5;" width="117.6152" x="46" y="222.5"/><rect fill="#F1F1F1" height="10" style="stroke:#181818;stroke-width:0.5;" width="15" x="143.6152" y="227.5"/><rect fill="#F1F1F1" height="2" style="stroke:#181818;stroke-width:0.5;" width="4" x="141.6152" y="229.5"/><rect fill="#F1F1F1" height="2" style="stroke:#181818;stroke-width:0.5;" width="4" x="141.6152" y="233.5"/><text fill="#000000" font-family="sans-serif" font-size="14" lengthAdjust="spacing" textLength="77.6152" x="61" y="255.4951">Tienda.vue</text></g><!--entity ProductoView.vue--><g id="elem_ProductoView.vue"><rect fill="#F1F1F1" height="46.2969" rx="2.5" ry="2.5" style="stroke:#181818;stroke-width:0.5;" width="166.0273" x="199" y="222.5"/><rect fill="#F1F1F1" height="10" style="stroke:#181818;stroke-width:0.5;" width="15" x="345.0273" y="227.5"/><rect fill="#F1F1F1" height="2" style="stroke:#181818;stroke-width:0.5;" width="4" x="343.0273" y="229.5"/><rect fill="#F1F1F1" height="2" style="stroke:#181818;stroke-width:0.5;" width="4" x="343.0273" y="233.5"/><text fill="#000000" font-family="sans-serif" font-size="14" lengthAdjust="spacing" textLength="126.0273" x="214" y="255.4951">ProductoView.vue</text></g><!--entity CarritoView.vue--><g id="elem_CarritoView.vue"><rect fill="#F1F1F1" height="46.2969" rx="2.5" ry="2.5" style="stroke:#181818;stroke-width:0.5;" width="151.5625" x="400" y="222.5"/><rect fill="#F1F1F1" height="10" style="stroke:#181818;stroke-width:0.5;" width="15" x="531.5625" y="227.5"/><rect fill="#F1F1F1" height="2" style="stroke:#181818;stroke-width:0.5;" width="4" x="529.5625" y="229.5"/><rect fill="#F1F1F1" height="2" style="stroke:#181818;stroke-width:0.5;" width="4" x="529.5625" y="233.5"/><text fill="#000000" font-family="sans-serif" font-size="14" lengthAdjust="spacing" textLength="111.5625" x="415" y="255.4951">CarritoView.vue</text></g><!--entity colecci?n productos--><g id="elem_colecci&#243;n productos"><rect fill="#F1F1F1" height="46.2969" rx="2.5" ry="2.5" style="stroke:#181818;stroke-width:0.5;" width="179.9521" x="294" y="530.5"/><rect fill="#F1F1F1" height="10" style="stroke:#181818;stroke-width:0.5;" width="15" x="453.9521" y="535.5"/><rect fill="#F1F1F1" height="2" style="stroke:#181818;stroke-width:0.5;" width="4" x="451.9521" y="537.5"/><rect fill="#F1F1F1" height="2" style="stroke:#181818;stroke-width:0.5;" width="4" x="451.9521" y="541.5"/><text fill="#000000" font-family="sans-serif" font-size="14" lengthAdjust="spacing" textLength="139.9521" x="309" y="563.4951">colecci&#243;n productos</text></g><!--entity Usuario--><g id="elem_Usuario"><ellipse cx="105.1021" cy="14" fill="#F1F1F1" rx="8" ry="8" style="stroke:#181818;stroke-width:0.5;"/><path d="M105.1021,22 L105.1021,49 M92.1021,30 L118.1021,30 M105.1021,49 L92.1021,64 M105.1021,49 L118.1021,64 " fill="transparent" style="stroke:#181818;stroke-width:0.5;"/><text fill="#000000" font-family="sans-serif" font-size="14" lengthAdjust="spacing" textLength="53.2041" x="78.5" y="78.4951">Usuario</text></g><!--entity Pinia Store--><g id="elem_Pinia Store"><rect fill="#F1F1F1" height="46.2969" rx="2.5" ry="2.5" style="stroke:#181818;stroke-width:0.5;" width="115.4346" x="380.5" y="355.5"/><rect fill="#F1F1F1" height="10" style="stroke:#181818;stroke-width:0.5;" width="15" x="475.9346" y="360.5"/><rect fill="#F1F1F1" height="2" style="stroke:#181818;stroke-width:0.5;" width="4" x="473.9346" y="362.5"/><rect fill="#F1F1F1" height="2" style="stroke:#181818;stroke-width:0.5;" width="4" x="473.9346" y="366.5"/><text fill="#000000" font-family="sans-serif" font-size="14" lengthAdjust="spacing" textLength="75.4346" x="395.5" y="388.4951">Pinia Store</text></g><!--link Usuario to Tienda.vue--><g id="link_Usuario_Tienda.vue"><path d="M105,81.65 C105,123 105,182.45 105,216.41 " fill="transparent" id="Usuario-to-Tienda.vue" style="stroke:#181818;stroke-width:1;"/><polygon fill="#181818" points="105,222.41,109,213.41,105,217.41,101,213.41,105,222.41" style="stroke:#181818;stroke-width:1;"/><text fill="#000000" font-family="sans-serif" font-size="13" lengthAdjust="spacing" textLength="166.0293" x="106" y="124.5669">A&#241;ade producto al carrito</text></g><!--link CarritoView.vue to Pinia Store--><g id="link_CarritoView.vue_Pinia Store"><path d="M469.55,268.72 C462.57,292.81 453.1517,325.2776 446.1517,349.4076 " fill="transparent" id="CarritoView.vue-to-Pinia Store" style="stroke:#181818;stroke-width:1;"/><polygon fill="#181818" points="444.48,355.17,450.8291,347.6408,445.873,350.368,443.1459,345.4119,444.48,355.17" style="stroke:#181818;stroke-width:1;"/></g><!--link Pinia Store to Firebase Firestore--><g id="link_Pinia Store_Firebase Firestore"><path d="M380.46,393.17 C345.62,404.42 303.19,423.96 278,456.5 C274.7238,460.7313 271.9661,465.3747 269.649,470.2648 C269.3594,470.8761 271.5213,466.0118 271.2453,466.6305 " fill="transparent" id="Pinia Store-to-Firebase Firestore" style="stroke:#181818;stroke-width:1;"/><polygon fill="#181818" points="268.8006,472.1099,276.1206,465.5206,270.8378,467.5437,268.8147,462.261,268.8006,472.1099" style="stroke:#181818;stroke-width:1;"/><text fill="#000000" font-family="sans-serif" font-size="13" lengthAdjust="spacing" textLength="97.062" x="302" y="444.5669">actualiza stock</text></g><!--link Tienda.vue to Firebase Firestore--><g id="link_Tienda.vue_Firebase Firestore"><path d="M116.08,268.51 C133.455,303.04 168.3475,372.375 199.305,433.8888 C214.7838,464.6456 229.2788,493.4472 240.1084,514.9652 C242.8159,520.3446 245.2942,525.2689 247.5016,529.6547 C248.6052,531.8476 249.6412,533.9059 250.6041,535.8191 C250.7245,536.0583 248.1463,530.9357 248.2643,531.1703 " fill="transparent" id="Tienda.vue-to-Firebase Firestore" style="stroke:#181818;stroke-width:1;"/><polygon fill="#181818" points="250.9618,536.5298,250.4886,526.6923,248.7139,532.0636,243.3426,530.2889,250.9618,536.5298" style="stroke:#181818;stroke-width:1;"/><text fill="#000000" font-family="sans-serif" font-size="13" lengthAdjust="spacing" textLength="124.1729" x="183" y="383.0669">consulta productos</text></g><!--SRC=[VOzDQW9148NtVOh7hCp27C25884iWn1r8xEeL1UcSTBTz8z2WeSIZ-35qZCjIGOXkwfNzUfzHPnSm3fc2iOfJxoddU253h8ZNIPV2c3tuPqLcz1iic3XFIOhuVVNOfM7PjW1jYiZLjFZ8KjRXMLmEfVx6oF7F_8JXM36wacTbAP4RnG5pRC9CbHz4VkGch5brmcpkLui_ErsR8lrXe_fT3x2m0oBwvcq_Ao3Ed3DLtSWrRyqrX26trerwkhydgxF8KwPElD9A1BlrGZZ7nyx6tENwFUXRm00]--></g></svg>